<?xml version="1.0" standalone="no"?>
<!DOCTYPE svg PUBLIC "-//W3C//DTD SVG 20010904//EN"
 "http://www.w3.org/TR/2001/REC-SVG-20010904/DTD/svg10.dtd">
<svg version="1.0" xmlns="http://www.w3.org/2000/svg"
 width="200.000000pt" height="200.000000pt" viewBox="0 0 200.000000 200.000000"
 preserveAspectRatio="xMidYMid meet">

<g transform="translate(0.000000,200.000000) scale(0.100000,-0.100000)"
fill="#000000" stroke="none">
<path d="M0 1000 l0 -1000 1000 0 1000 0 0 1000 0 1000 -1000 0 -1000 0 0
-1000z m1111 593 c90 -88 109 -112 109 -137 0 -73 -65 -87 -125 -26 -21 22
-43 40 -47 40 -4 0 -8 -155 -8 -345 l0 -345 -25 -16 c-48 -31 -66 -15 -187
161 -62 90 -116 164 -120 165 -4 0 -9 -71 -10 -157 l-3 -157 -27 -16 c-25 -13
-31 -13 -55 0 l-28 16 0 274 0 275 26 9 c52 18 69 3 189 -172 l115 -167 3 239
c1 131 0 241 -3 244 -2 3 -27 -16 -54 -41 -29 -27 -60 -47 -72 -47 -33 0 -59
29 -59 65 0 26 16 47 109 138 85 85 114 107 136 107 22 0 51 -22 136 -107z
m-647 -271 c15 -17 16 -48 14 -283 l-3 -263 -27 -16 c-25 -13 -31 -13 -55 0
l-28 16 -3 266 c-2 232 0 268 14 282 21 22 67 20 88 -2z m974 -13 c110 -54
162 -142 162 -268 0 -115 -66 -213 -175 -263 -40 -17 -73 -23 -160 -26 -99 -4
-113 -2 -135 16 l-25 20 0 262 c0 247 1 262 19 276 15 10 51 14 136 14 110 0
120 -2 178 -31z m-916 -663 c24 -13 32 -13 57 0 63 32 101 -16 94 -120 -3 -56
-6 -61 -28 -53 -11 5 -15 21 -15 61 0 64 -19 93 -50 76 -15 -8 -20 -24 -22
-73 -3 -54 -5 -62 -23 -62 -18 0 -20 8 -23 62 -3 69 -18 91 -51 74 -16 -9 -21
-23 -23 -74 -3 -54 -5 -62 -23 -62 -18 0 -20 8 -23 83 -2 67 0 83 13 88 8 4
21 2 28 -4 8 -7 18 -6 31 4 24 17 25 17 58 0z m333 0 c39 -17 55 -42 55 -88 0
-67 -60 -110 -124 -88 -44 14 -66 44 -66 88 0 45 16 71 53 87 40 18 41 18 82
1z m248 -14 c13 -12 17 -31 17 -89 0 -65 -2 -73 -19 -73 -16 0 -19 10 -23 66
-4 73 -19 92 -53 70 -16 -11 -21 -26 -23 -75 -3 -53 -6 -61 -22 -61 -18 0 -20
7 -20 90 0 72 3 90 14 90 8 0 17 -4 21 -9 3 -6 16 -4 31 4 28 14 49 11 77 -13z
m191 14 c25 -10 37 -24 46 -51 7 -20 8 -41 4 -45 -5 -5 -38 -10 -73 -12 -63
-3 -64 -4 -46 -21 13 -13 26 -17 44 -13 48 12 56 11 56 -4 0 -8 -13 -21 -29
-29 -23 -11 -36 -11 -68 -2 -88 27 -83 162 7 184 11 3 21 5 23 6 1 0 18 -5 36
-13z m141 -53 c11 -28 23 -55 27 -58 4 -4 15 19 24 50 18 57 39 79 54 55 8
-12 -58 -195 -86 -237 -10 -16 -24 -23 -44 -23 -37 0 -41 26 -6 39 37 15 37
45 1 128 -18 42 -31 83 -28 90 11 27 37 7 58 -44z"/>
<path d="M1230 1050 l0 -170 55 0 c70 0 112 17 152 63 39 44 50 95 33 150 -24
80 -97 127 -197 127 l-43 0 0 -170z"/>
<path d="M787 608 c-28 -22 -32 -63 -8 -87 24 -24 40 -26 66 -7 37 27 15 106
-30 106 -6 0 -19 -6 -28 -12z"/>
<path d="M1228 609 c-31 -17 -20 -29 27 -29 46 0 54 7 33 28 -15 15 -37 15
-60 1z"/>
</g>
</svg>
