<svg id="visual" viewBox="0 0 960 200" width="960" height="200" xmlns="http://www.w3.org/2000/svg" xmlns:xlink="http://www.w3.org/1999/xlink" version="1.1"><rect x="0" y="0" width="960" height="200" fill="#020718"></rect><path d="M0 100L16 98.7C32 97.3 64 94.7 96 98.7C128 102.7 160 113.3 192 111.8C224 110.3 256 96.7 288 96.5C320 96.3 352 109.7 384 108.3C416 107 448 91 480 87.3C512 83.7 544 92.3 576 96.2C608 100 640 99 672 103C704 107 736 116 768 113.2C800 110.3 832 95.7 864 96.2C896 96.7 928 112.3 944 120.2L960 128L960 0L944 0C928 0 896 0 864 0C832 0 800 0 768 0C736 0 704 0 672 0C640 0 608 0 576 0C544 0 512 0 480 0C448 0 416 0 384 0C352 0 320 0 288 0C256 0 224 0 192 0C160 0 128 0 96 0C64 0 32 0 16 0L0 0Z" fill="#1d5fc3"></path><path d="M0 70L16 75.2C32 80.3 64 90.7 96 94.8C128 99 160 97 192 93.8C224 90.7 256 86.3 288 80.8C320 75.3 352 68.7 384 69.2C416 69.7 448 77.3 480 83.5C512 89.7 544 94.3 576 92.3C608 90.3 640 81.7 672 74.5C704 67.3 736 61.7 768 64.3C800 67 832 78 864 79.5C896 81 928 73 944 69L960 65L960 0L944 0C928 0 896 0 864 0C832 0 800 0 768 0C736 0 704 0 672 0C640 0 608 0 576 0C544 0 512 0 480 0C448 0 416 0 384 0C352 0 320 0 288 0C256 0 224 0 192 0C160 0 128 0 96 0C64 0 32 0 16 0L0 0Z" fill="#274080"></path><path d="M0 65L16 62.2C32 59.3 64 53.7 96 54.3C128 55 160 62 192 61.8C224 61.7 256 54.3 288 51.5C320 48.7 352 50.3 384 49.3C416 48.3 448 44.7 480 46C512 47.3 544 53.7 576 53.3C608 53 640 46 672 45.3C704 44.7 736 50.3 768 51.3C800 52.3 832 48.7 864 46.5C896 44.3 928 43.7 944 43.3L960 43L960 0L944 0C928 0 896 0 864 0C832 0 800 0 768 0C736 0 704 0 672 0C640 0 608 0 576 0C544 0 512 0 480 0C448 0 416 0 384 0C352 0 320 0 288 0C256 0 224 0 192 0C160 0 128 0 96 0C64 0 32 0 16 0L0 0Z" fill="#1e2344"></path><path d="M0 17L16 18.3C32 19.7 64 22.3 96 24.7C128 27 160 29 192 29.3C224 29.7 256 28.3 288 28C320 27.7 352 28.3 384 29.3C416 30.3 448 31.7 480 31.3C512 31 544 29 576 29.3C608 29.7 640 32.3 672 34C704 35.7 736 36.3 768 38C800 39.7 832 42.3 864 39.5C896 36.7 928 28.3 944 24.2L960 20L960 0L944 0C928 0 896 0 864 0C832 0 800 0 768 0C736 0 704 0 672 0C640 0 608 0 576 0C544 0 512 0 480 0C448 0 416 0 384 0C352 0 320 0 288 0C256 0 224 0 192 0C160 0 128 0 96 0C64 0 32 0 16 0L0 0Z" fill="#05040e"></path></svg>